Coordinates
version=1
nRows=14
nColumns=36
inDegrees=yes

Units are S.I. units (second, meters, Newtons, ...)
If the header above contains a line with 'inDegrees', this indicates whether rotational values are in degrees (yes) or radians (no).

endheader
time	pelvis_tilt	pelvis_list	pelvis_rotation	pelvis_tx	pelvis_ty	pelvis_tz	hip_flexion_r	hip_adduction_r	hip_rotation_r	knee_angle_r	knee_angle_r_beta	ankle_angle_r	subtalar_angle_r	mtp_angle_r	hip_flexion_l	hip_adduction_l	hip_rotation_l	knee_angle_l	knee_angle_l_beta	ankle_angle_l	subtalar_angle_l	mtp_angle_l	lumbar_extension	lumbar_bending	lumbar_rotation	arm_flex_r	arm_add_r	arm_rot_r	elbow_flex_r	pro_sup_r	arm_flex_l	arm_add_l	arm_rot_l	elbow_flex_l	pro_sup_l
      0.00000000	      2.76984747	      4.97549653	     -6.22764357	      0.67898497	      0.89508490	     -0.29668322	     -1.38061388	      3.60509477	     13.18856754	      8.21598429	      0.14339598	      7.35687828	    -21.27358951	     -7.14872665	     28.00844160	      3.35423663	      1.27090895	     32.87239870	      0.57373159	     -5.95753345	    -30.00287259	     -7.14872665	     -8.40858767	      0.55911400	      2.01617310	     35.37060888	      5.32717351	     47.66028287	    126.56666329	    107.73114909	     55.43575314	     23.41930863	     72.37560587	    116.79503228	    101.27729514
      0.01666670	      3.64132786	      4.30459951	     -8.47396877	      0.67906217	      0.89402027	     -0.29641292	     -2.84571585	      3.79360992	     17.00434047	      7.29002798	      0.12723499	     10.80678512	    -22.01609282	     -7.27412844	     27.08986264	      2.13710565	      1.01195088	     34.37482506	      0.59995388	     -4.18149647	    -28.77360560	     -7.27412844	     -7.83666779	      2.92979819	      2.83436049	     37.97286399	      6.47796496	     47.87883866	    126.25936001	    104.72724054	     58.14492157	     21.69165962	     68.52157345	    120.51391105	     98.84524654
      0.03333330	      2.81719831	      5.10407664	     -9.28957595	      0.68131948	      0.89062477	     -0.29452776	     -2.65490353	      2.58347023	     17.33900392	      6.17710084	      0.10781075	     11.46681693	    -21.03179816	     -7.28312469	     27.24210105	      2.63255498	      1.48580510	     34.95415052	      0.61006501	     -3.83301905	    -28.49898867	     -7.28312469	     -5.50194835	      2.27949945	      3.75953196	     37.33861276	      6.98989480	     47.75922637	    126.80014334	    104.78435755	     57.95942786	     20.60702767	     68.32112423	    121.52434179	     99.27288094
      0.05000000	      2.73133978	      5.31918407	     -9.55077864	      0.68459117	      0.88671102	     -0.29182544	     -3.02874885	      2.16263822	     17.96152734	      5.73239221	      0.10004912	     11.59870685	    -20.53051991	     -7.28753906	     26.60646844	      2.88395333	      1.73814123	     37.26554812	      0.65040651	     -2.40216086	    -28.97450094	     -7.28753906	     -4.42562074	      1.95550111	      3.96838624	     36.79002461	      7.09469961	     48.38360485	    126.50549163	    104.54288389	     58.06166125	     20.35302174	     68.32645194	    121.16188656	     99.18075017
      0.06666670	      2.34629633	      5.24215008	     -9.63729277	      0.68591507	      0.88631585	     -0.29088419	     -2.92292763	      2.27341476	     18.23120503	      5.36477760	      0.09363303	     10.92727006	    -20.38793230	     -7.29244664	     26.59581144	      2.82926398	      1.91522427	     39.18544635	      0.68391506	     -2.05281108	    -29.33715011	     -7.29244664	     -3.34605022	      2.12225390	      4.05776658	     36.30100720	      6.91453739	     49.26493340	    125.79684769	    104.49431413	     58.10795733	     20.41478606	     69.21611932	    120.40676834	     99.26495688
      0.08333330	      2.44873558	      5.36910080	     -9.87854802	      0.68593279	      0.88857684	     -0.29024875	     -2.88949999	      2.11396191	     18.32052252	      5.55795646	      0.09700464	     10.28983043	    -19.83420360	     -7.29420882	     26.09526475	      2.91288598	      1.47332581	     40.74406824	      0.71111814	     -2.11547201	    -29.34683585	     -7.29420882	     -3.00843469	      1.89018485	      4.08968903	     36.02455212	      6.91769806	     49.49435608	    125.37292450	    104.29708164	     57.91483551	     20.21358856	     69.62727135	    120.12415253	     99.14207502
      0.10000000	      2.03061522	      5.17352034	     -9.82069560	      0.68606938	      0.88852910	     -0.29013085	     -2.42774275	      2.42044992	     18.35363957	      5.63475690	      0.09834506	      9.42353849	    -19.57699057	     -7.29835903	     26.01502840	      2.62554269	      1.07440296	     42.37827702	      0.73964047	     -2.34430839	    -30.26084787	     -7.29835903	     -2.11175125	      2.16619264	      3.65014572	     35.94448100	      6.90721072	     49.82187095	    123.78753195	    104.12979034	     57.96044589	     19.98118638	     70.75419856	    119.16440176	     99.05046144
      0.11666670	      1.65525694	      5.08532027	     -9.62335758	      0.68974545	      0.88645019	     -0.28768493	     -2.05835154	      2.62356439	     18.45164267	      5.68054333	      0.09914418	      8.68552508	    -19.37728188	     -7.30681747	     25.69966768	      2.59664033	      0.78376908	     44.24262680	      0.77217951	     -1.96484772	    -30.33951034	     -7.30681747	     -1.12349867	      2.18303122	      3.00946816	     35.68275793	      7.20675903	     49.88232468	    122.70688172	    103.62260385	     57.31112624	     19.68500393	     70.76988599	    119.16637452	     98.59913840
      0.13333330	      1.49346250	      4.89334210	     -9.48368699	      0.69038135	      0.88839210	     -0.28725585	     -1.87752218	      2.93001124	     18.64788123	      5.63635721	      0.09837299	      8.30907572	    -19.09398333	     -7.31102926	     24.88911362	      2.44523162	      0.63422477	     45.26288349	      0.78998635	     -1.34465802	    -30.34497229	     -7.31102926	     -0.64279108	      2.20752272	      2.50218002	     35.35023274	      7.31176279	     49.86772906	    122.21822230	    103.40969748	     56.79632913	     19.61478721	     70.88581857	    119.16822743	     98.38630072
      0.15000000	      1.52596742	      4.73331302	     -9.44219076	      0.69325494	      0.89279481	     -0.28955831	     -2.02956216	      3.03073833	     18.56861493	      5.56586569	      0.09714268	      7.57707781	    -18.87713609	     -7.31799372	     23.79461613	      2.47463023	      0.40385564	     46.33374469	      0.80867640	     -1.69857153	    -30.48974326	     -7.31799372	     -0.30955688	      2.46262275	      1.67343189	     34.97686206	      7.44256498	     50.12674976	    121.53608976	    103.04818666	     56.10143782	     19.36446905	     71.13952695	    119.15671432	     98.03003910
      0.16666670	      1.54369578	      4.65368959	     -9.62352205	      0.69040715	      0.89216723	     -0.29182976	     -1.99106555	      3.01863044	     18.59400540	      5.58693324	      0.09751038	      7.46640985	    -18.70472865	     -7.31929376	     23.17328563	      2.52292420	     -0.34075885	     47.97065334	      0.83724585	     -2.10269793	    -30.49478164	     -7.31929376	     -0.31393261	      2.60426479	      1.36674311	     34.76181651	      7.31926358	     50.17009695	    121.49884490	    102.90943465	     55.87496018	     19.20946150	     71.25050589	    119.05769624	     97.92305200
      0.18333330	      1.73320224	      4.32173236	     -9.60755190	      0.68944245	      0.89213362	     -0.28781206	     -2.36237103	      3.32271260	     18.87455225	      5.25916994	      0.09178983	      6.80984062	    -19.17674079	     -7.32709028	     22.39580394	      2.37984571	     -0.70627271	     49.44433774	      0.86296649	     -2.62357634	    -31.49256631	     -7.32709028	     -0.51096891	      3.09129662	      0.55630355	     35.20367609	      7.70314519	     50.24876572	    120.94554791	    102.60609490	     55.97532576	     18.74756060	     71.13610342	    119.09131566	     97.67079184
      0.20000000	      1.80384472	      4.27527044	     -9.76893201	      0.69347504	      0.89409305	     -0.28910563	     -2.46023155	      3.37173880	     18.78807078	      5.33888766	      0.09318117	      6.52794709	    -19.05012251	     -7.33149014	     21.42797747	      2.53181386	     -0.58426232	     51.17280155	      0.89313387	     -2.92799902	    -31.22183186	     -7.33149014	     -0.30776496	      3.22352808	      0.09660180	     34.98930898	      7.84470722	     50.35568744	    120.78322259	    102.21520949	     55.97988818	     18.51253979	     71.11094674	    119.12665144	     97.36756395
      0.21666670	      1.89538204	      4.46219909	    -10.14803412	      0.69371032	      0.88956364	     -0.28899036	     -2.82994925	      3.35616803	     18.47233812	      5.70525766	      0.09957553	      6.88377303	    -19.35885829	     -7.33209760	     20.74199874	      2.80834526	     -0.72980302	     52.77497428	      0.92109706	     -3.40833550	    -31.22162674	     -7.33209760	     -0.10795123	      2.92810855	      0.05986084	     34.88052461	      7.96382524	     50.41787966	    120.81116462	    102.19948921	     56.06150754	     18.26902281	     70.94967745	    119.19354095	     97.34326610
